<?xml version="1.0" encoding="UTF-8"?>
<svg version="1.1" xmlns="http://www.w3.org/2000/svg" width="1024" height="1024">
<path d="M0,0 L223,0 L238,2 L247,7 L254,14 L259,24 L261,31 L261,50 L257,63 L252,71 L243,79 L232,83 L222,85 L218,87 L216,98 L216,197 L218,212 L228,230 L242,254 L256,279 L270,303 L285,330 L299,354 L313,379 L329,407 L345,435 L361,463 L377,491 L389,512 L397,528 L402,542 L405,559 L405,578 L401,598 L394,615 L386,627 L376,639 L365,648 L354,655 L342,661 L329,665 L318,667 L-83,668 L-105,667 L-123,663 L-135,658 L-146,652 L-159,642 L-169,632 L-178,619 L-185,605 L-189,592 L-191,581 L-191,554 L-187,536 L-181,521 L-169,499 L-158,480 L-144,455 L-130,431 L-117,407 L-105,386 L-92,363 L-78,338 L-66,317 L-52,292 L-38,268 L-26,246 L-14,225 L-9,215 L-8,211 L-8,89 L-12,85 L-24,82 L-33,77 L-38,73 L-44,63 L-47,54 L-48,47 L-48,38 L-45,22 L-39,12 L-31,5 L-21,1 Z M-4,39 L-6,41 L-5,47 L16,54 L24,60 L30,70 L32,76 L33,85 L33,208 L31,220 L25,232 L11,256 L-4,283 L-20,311 L-34,336 L-48,360 L-63,387 L-77,411 L-92,438 L-106,462 L-121,489 L-134,511 L-145,531 L-151,547 L-154,563 L-154,571 L-151,586 L-146,598 L-137,610 L-128,618 L-116,625 L-103,629 L-96,630 L309,630 L325,627 L337,622 L349,613 L358,602 L365,587 L368,572 L368,562 L365,546 L354,523 L340,499 L324,471 L308,443 L293,417 L277,389 L261,361 L246,335 L230,307 L214,279 L200,255 L184,227 L180,216 L180,77 L184,66 L190,58 L198,53 L215,48 L219,45 L218,40 L212,39 Z " fill="#ffffff" transform="translate(405,176)"/>
<path d="M0,0 L22,1 L31,3 L41,21 L57,49 L71,74 L85,98 L100,125 L114,149 L126,172 L128,181 L128,194 L125,204 L118,214 L109,221 L100,224 L91,225 L-310,225 L-320,223 L-330,218 L-338,210 L-343,200 L-345,190 L-345,181 L-342,170 L-334,154 L-318,126 L-304,101 L-292,80 L-278,55 L-265,32 L-258,21 L-249,24 L-221,36 L-195,44 L-178,47 L-146,47 L-126,43 L-102,35 L-77,23 L-56,13 L-32,5 L-10,1 Z M-59,67 L-68,70 L-76,76 L-81,85 L-82,88 L-82,98 L-78,108 L-71,115 L-63,119 L-49,119 L-41,115 L-36,111 L-31,102 L-30,99 L-30,88 L-33,80 L-39,73 L-48,68 Z M-183,125 L-191,129 L-196,134 L-200,140 L-201,144 L-201,155 L-196,165 L-189,171 L-180,174 L-173,174 L-163,170 L-158,166 L-154,160 L-152,154 L-152,144 L-157,134 L-165,127 L-170,125 Z " fill="#ffffff" transform="translate(620,556)"/>
<path d="M0,0 L17,0 L28,4 L37,10 L45,19 L50,30 L51,34 L51,52 L47,63 L39,74 L31,80 L23,84 L15,86 L2,86 L-11,82 L-20,76 L-27,69 L-33,57 L-35,49 L-35,36 L-32,26 L-27,17 L-21,10 L-10,3 Z " fill="#ffffff" transform="translate(547,445)"/>
<path d="M0,0 L14,0 L23,3 L33,12 L38,21 L39,25 L39,37 L35,48 L27,57 L17,62 L13,63 L2,63 L-9,59 L-17,52 L-22,44 L-24,38 L-24,25 L-21,16 L-15,8 L-6,2 Z " fill="#ffffff" transform="translate(445,506)"/>
<path d="M0,0 L11,1 L21,6 L28,14 L31,21 L31,36 L26,46 L18,53 L11,56 L2,57 L-7,55 L-16,50 L-22,42 L-25,33 L-25,24 L-21,13 L-16,7 L-8,2 Z " fill="#ffffff" transform="translate(497,370)"/>
</svg>
